<svg xmlns="http://www.w3.org/2000/svg" viewBox="0 0 1050.33 1050.33"><defs><style>.cls-1,.cls-10,.cls-11{fill:#316892;}.cls-2,.cls-3,.cls-8,.cls-9{fill:#fff;}.cls-2{stroke:#6d6e71;}.cls-12,.cls-13,.cls-2,.cls-3,.cls-5{stroke-miterlimit:10;}.cls-3,.cls-5,.cls-7,.cls-9{stroke:#316892;}.cls-4{fill:#ed1c24;}.cls-12,.cls-13,.cls-5,.cls-7{fill:none;}.cls-5{stroke-width:12px;}.cls-6{fill:#fff200;}.cls-7,.cls-9{stroke-linejoin:round;stroke-width:3px;}.cls-10{opacity:0.2;}.cls-11{opacity:0.18;}.cls-12{stroke:#808285;stroke-width:11px;}.cls-13{stroke:#231f20;}</style></defs><g id="wax_seal" data-name="wax seal"><path class="cls-1" d="M14.84,540c0-44.29,65.79-79.34,76.71-120.19,11.29-42.26-27.83-105.45-6.42-142.45,21.72-37.53,96.2-35.11,126.66-65.57s28-104.94,65.57-126.66c37-21.41,100.19,17.71,142.45,6.42C460.66,80.63,495.71,14.84,540,14.84s79.34,65.79,120.19,76.71c42.26,11.29,105.45-27.83,142.45-6.42,37.53,21.72,35.11,96.2,65.57,126.66s104.94,28,126.66,65.57c21.41,37-17.71,100.19-6.42,142.45,10.92,40.85,76.71,75.9,76.71,120.19s-65.79,79.34-76.71,120.19c-11.29,42.26,27.83,105.45,6.42,142.45-21.72,37.53-96.2,35.11-126.66,65.57s-28,104.94-65.57,126.66c-37,21.41-100.19-17.71-142.45-6.42-40.85,10.92-75.9,76.71-120.19,76.71s-79.34-65.79-120.19-76.71c-42.26-11.29-105.45,27.83-142.45,6.42-37.53-21.72-35.11-96.2-65.57-126.66s-104.94-28-126.66-65.57c-21.41-37,17.71-100.19,6.42-142.45C80.63,619.34,14.84,584.29,14.84,540Z" transform="translate(-14.84 -14.84)"/><path class="cls-1" d="M14.84,540c0-44.29,65.79-79.34,76.71-120.19,11.29-42.26-27.83-105.45-6.42-142.45,21.72-37.53,96.2-35.11,126.66-65.57s28-104.94,65.57-126.66c37-21.41,100.19,17.71,142.45,6.42C460.66,80.63,495.71,14.84,540,14.84s79.34,65.79,120.19,76.71c42.26,11.29,105.45-27.83,142.45-6.42,37.53,21.72,35.11,96.2,65.57,126.66s104.94,28,126.66,65.57c21.41,37-17.71,100.19-6.42,142.45,10.92,40.85,76.71,75.9,76.71,120.19s-65.79,79.34-76.71,120.19c-11.29,42.26,27.83,105.45,6.42,142.45-21.72,37.53-96.2,35.11-126.66,65.57s-28,104.94-65.57,126.66c-37,21.41-100.19-17.71-142.45-6.42-40.85,10.92-75.9,76.71-120.19,76.71s-79.34-65.79-120.19-76.71c-42.26-11.29-105.45,27.83-142.45,6.42-37.53-21.72-35.11-96.2-65.57-126.66s-104.94-28-126.66-65.57c-21.41-37,17.71-100.19,6.42-142.45C80.63,619.34,14.84,584.29,14.84,540Z" transform="translate(-14.84 -14.84)"/></g><g id="circle1"><circle class="cls-2" cx="525.16" cy="525.16" r="412.23"/><path class="cls-3" d="M675.81,534.53" transform="translate(-14.84 -14.84)"/></g><g id="text"><path class="cls-4" d="M151.93,629.31h9.71V595.55a32.15,32.15,0,0,1-8.08,1.06h-2.4v-5.29h2.4c5.37,0,10.14-1.34,13.44-3.78a2.72,2.72,0,0,1,2.13-.68c2.82,0,2.82,1.71,2.82,3.23v39.22h9.77v5.35l-1.07-.07c-3-.21-10.32-.21-13.82-.21s-10.79,0-13.83.21l-1.07.07Z" transform="translate(-14.84 -14.84)"/><path class="cls-4" d="M166.83,633.38c-3.43,0-10.83,0-13.9.21v-3.28h9.71v-36.1a30.81,30.81,0,0,1-9.08,1.4h-1.4v-3.29h1.4c1.47,0,8.66,0,14-4a1.83,1.83,0,0,1,1.54-.48c1.82,0,1.82.69,1.82,2.23v40.22h9.77v3.28C177.65,633.38,170.25,633.38,166.83,633.38Z" transform="translate(-14.84 -14.84)"/><path class="cls-4" d="M203.07,635.36c-9.09,0-12.32-5.24-12.32-9.73a5.37,5.37,0,1,1,8.6,4.19,11.36,11.36,0,0,0,3.58.54,8.71,8.71,0,0,0,8.09-5.27,27.82,27.82,0,0,0,1.56-9.49,9.15,9.15,0,0,1-7.35,3.14c-9.87,0-16.5-6.38-16.5-15.87,0-9.73,7-16,17.83-16,8,0,17.55,4.12,17.55,23.76C224.11,628.88,212.77,635.36,203.07,635.36Zm3.63-43.78c-6.19,0-6.47,3.92-6.47,11.43s.23,11.22,5.63,11.22,6.68-6.89,6.68-10.52c0-2.19,0-6.25-.78-8.39C211.42,594.46,210,591.58,206.7,591.58Z" transform="translate(-14.84 -14.84)"/><path class="cls-4" d="M203.07,634.36c-7.75,0-11.32-4-11.32-8.73a4.37,4.37,0,1,1,8.73-.14,4.38,4.38,0,0,1-3.42,4.33,10.76,10.76,0,0,0,5.87,1.54,9.74,9.74,0,0,0,9-5.87c1-2.37,1.68-6.49,1.68-11.59v-1.54c-2.65,4.89-5.94,5.38-8.38,5.38-8.59,0-15.5-5.24-15.5-14.87,0-9.36,6.91-15,16.83-15,16.55,0,16.55,18.08,16.55,22.76C223.11,628.49,212.14,634.36,203.07,634.36ZM212.7,595c-.28-.7-1.88-4.4-6-4.4-7.47,0-7.47,5.58-7.47,12.43s0,12.22,6.63,12.22c5.86,0,7.68-7.13,7.68-11.52C213.54,601.33,213.54,597.28,212.7,595Z" transform="translate(-14.84 -14.84)"/><path class="cls-4" d="M868.75,637.21c-2.46,0-5.33-1.54-5.33-5.89,0-9.47,4-19,12-28.23.61-.76,1.26-1.51,1.91-2.26l.54-.63h-9.65c-5.43,0-6.81.23-7.11.3-.17.23-.84,1.35-1.4,5.6l-.11.87h-5.31L857,587.24h5l.17.8c.12.61.13.68.88.82,1,.26,10.81.61,12.66.61H890.9v1c0,2.52,0,3-1,4L879.14,607c-2.18,2.56-3.67,6.41-4.31,11.15a68.19,68.19,0,0,0-.69,9.85v3.21C874.14,635.64,871.36,637.21,868.75,637.21Z" transform="translate(-14.84 -14.84)"/><path class="cls-4" d="M889.2,593.82l-10.82,12.57c-2.44,2.87-3.91,7-4.54,11.66a67.9,67.9,0,0,0-.7,10v3.21c0,4.61-3.28,5-4.39,5-.42,0-4.33,0-4.33-4.89,0-10.33,5-19.76,11.73-27.58,1.25-1.54,2.58-3,3.84-4.54h-11.8c-1.19,0-6.85,0-7.61.42-.28.14-1.19,1-1.89,6.35h-3.28l2.44-17.73h3.28c.14.7.21,1.33,1.68,1.6,1,.28,11.24.63,12.85.63H889.9C889.9,592.92,889.9,593.06,889.2,593.82Z" transform="translate(-14.84 -14.84)"/><path class="cls-4" d="M911,637.21c-11,0-17.55-4.87-17.55-13,0-5,2.72-9.08,7.89-11.85a12.51,12.51,0,0,1-5.65-10.43c0-8,6.12-13.21,15.59-13.21s15.31,4.21,15.31,11.26c0,4-1.92,7.14-6,9.65,3.47,2.1,8.27,5.74,8.27,12.76C928.82,631.39,921.82,637.21,911,637.21Zm-4.38-21.7a10,10,0,0,0-5.16,8.69c0,5,3.67,8,9.82,8,2.87,0,9.54-.59,9.54-6,0-2.64-1.86-3.82-5.14-5.69ZM911,593.43c-3,0-8.08.57-8.08,4.37,0,1.65,1.24,2.57,2.57,3.32l9.93,5.56c2.72-1.92,3.94-4,3.94-6.64C919.35,595.84,916.3,593.43,911,593.43Z" transform="translate(-14.84 -14.84)"/><path class="cls-4" d="M911,636.21c-9,0-16.55-3.56-16.55-12,0-5.17,3.07-9.15,8.94-11.73-5.45-3.08-6.7-7.47-6.7-10.55,0-6.7,4.88-12.22,14.59-12.22,8,0,14.31,3.15,14.31,10.27,0,4-2.16,7.12-7.05,9.63,3.42,2,9.29,5.24,9.29,12.78S922.16,636.21,911,636.21Zm5.17-16.55-9.57-5.31a11.27,11.27,0,0,0-6.14,9.85c0,5.44,4,9,10.82,9,4,0,10.54-1.11,10.54-7C921.81,622.87,919.23,621.4,916.16,619.66ZM911,592.43c-2.79,0-9.08.49-9.08,5.37,0,2.38,2,3.57,3.08,4.19l10.47,5.87c3.07-2,4.89-4.4,4.89-7.82C920.35,595.29,916.86,592.43,911,592.43Z" transform="translate(-14.84 -14.84)"/><path class="cls-4" d="M204.85,534.73l-6.56-11c4.82-2.52,7.24-6.52,7.66-12.14.47-6.14-1.73-10.45-5.2-10.71-4.77-.36-9.12,7.15-13,13.72-4.19,7-8.79,14.78-19.18,14-11.27-.86-18-11-17.08-22.91.67-8.89,4.9-16,13-18.32l6,10.16a10.1,10.1,0,0,0-6.16,8.93c-.37,4.88,2.19,8.73,5.54,9,3.88.29,5.58-4.54,9.66-11.75,5.91-10.4,11.92-16.77,21.94-16,11.88.9,18.7,11.17,17.65,25.11C218.3,523.43,213.26,531,204.85,534.73Z" transform="translate(-14.84 -14.84)"/><path class="cls-4" d="M222.76,437.26l-6.84,25.24,7.71,6.41-3.71,13.7L163.45,435l.11-.39,72.8-12.64-3.72,13.73Zm-12.14,2-18.94,3.09,14.78,12.28Z" transform="translate(-14.84 -14.84)"/><path class="cls-4" d="M217.53,405.51l-36.9-18.3,5.87-11.83,36.86,18.27A12,12,0,1,0,234,372.15l-36.86-18.27L203,342l36.9,18.29c13.26,6.57,17.89,21.49,11.72,33.95S230.79,412.08,217.53,405.51Z" transform="translate(-14.84 -14.84)"/><path class="cls-4" d="M258.19,327.4l-41.86-6.83,9.08-11.73,25.24,4.47L240,290l9.1-11.76,17.08,38.85,22.17,17.17-8,10.31Z" transform="translate(-14.84 -14.84)"/><path class="cls-4" d="M280.76,291.15a34,34,0,1,1,47.81,3.22A34.12,34.12,0,0,1,280.76,291.15Zm41.16-36a20.71,20.71,0,1,0-2.09,29.18A20.78,20.78,0,0,0,321.92,255.17Z" transform="translate(-14.84 -14.84)"/><path class="cls-4" d="M414.71,168.41l25,60.39-12.1,5-10-24.2-21.69,9,10,24.2-12.1,5-24.95-60.38,12.1-5,10,24.16,21.69-9-10-24.16Z" transform="translate(-14.84 -14.84)"/><path class="cls-4" d="M442.08,161l12.76-3.08,15.35,63.51-12.77,3.08Z" transform="translate(-14.84 -14.84)"/><path class="cls-4" d="M548.2,181.35c1.4,20.46-11.9,33.36-28.88,34.52a34,34,0,1,1-5.12-67.78c8.46-.5,17.74,2.77,24.56,8.56L532.22,168c-5.43-4.62-11.45-7.05-17.27-6.66A20.86,20.86,0,0,0,496,183.5c.78,11.32,10.23,20,23,19.15,9.3-.64,15.64-5.87,15.55-13.74l-16.86,1.15L516.85,178l30.65-2.09A49.35,49.35,0,0,1,548.2,181.35Z" transform="translate(-14.84 -14.84)"/><path class="cls-4" d="M623.83,156.87l-9.91,64.57-12.94-2,4-25.88L581.76,190l-4,25.88-12.94-2,9.92-64.56,12.93,2-4,25.84,23.19,3.56,4-25.84Z" transform="translate(-14.84 -14.84)"/><path class="cls-4" d="M663,225.13,675.67,223c.6,5.41,3.46,9.12,8.54,11.55,5.56,2.65,10.37,2.17,11.87-1,2.07-4.32-3.36-11.09-8.07-17.12-5-6.45-10.59-13.55-6.1-23,4.88-10.2,16.73-12.8,27.55-7.62,8,3.84,13.11,10.35,12.36,18.76l-11.65,1.92a10.08,10.08,0,0,0-6.09-9c-4.42-2.12-8.94-1.13-10.39,1.9-1.68,3.51,2.21,6.85,7.45,13.27,7.56,9.27,11.32,17.18,7,26.25-5.14,10.75-17.18,13.39-29.79,7.36C668.67,241.76,663.47,234.33,663,225.13Z" transform="translate(-14.84 -14.84)"/><path class="cls-4" d="M729.84,234.85c11-14.8,32.79-18,47.55-7.06,6.75,5.18,10.79,12.38,12.35,21.77l-12.26,3.77c-1-6.18-3.65-11.52-8.17-14.88-8.43-6.27-22-4.77-28.85,4.4-6.94,9.33-4,22.75,4.1,28.77,4.82,3.59,10.89,4.11,16.91,3.29l-.29,13c-8,1.15-16.22.41-24.16-5.5C721.9,271.18,718.88,249.58,729.84,234.85Z" transform="translate(-14.84 -14.84)"/><path class="cls-4" d="M847.49,298.39l-49,43.27-8.67-9.81,19.61-17.34-15.54-17.58-19.61,17.34-8.67-9.81,49-43.26,8.67,9.8-19.59,17.32,15.54,17.58,19.59-17.31Z" transform="translate(-14.84 -14.84)"/><path class="cls-4" d="M836.37,337.39a34,34,0,1,1-13.52,46A34.11,34.11,0,0,1,836.37,337.39Zm26.19,48a20.71,20.71,0,1,0-28-8.37A20.79,20.79,0,0,0,862.56,385.38Z" transform="translate(-14.84 -14.84)"/><path class="cls-4" d="M876,415.19a34,34,0,1,1-24.32,41.29A34.11,34.11,0,0,1,876,415.19Zm13.7,52.93a20.71,20.71,0,1,0-25.15-15A20.8,20.8,0,0,0,889.69,468.12Z" transform="translate(-14.84 -14.84)"/><path class="cls-4" d="M876.78,542.71l-13,.61L861.9,504l65.26-3.05.61,13.12-52.22,2.44Z" transform="translate(-14.84 -14.84)"/><path class="cls-4" d="M267.21,832.12a9.59,9.59,0,0,1-7.17-3c-5.32-5.56-2-11.31,2.54-18.5a38.34,38.34,0,0,1-4.93-4.37c-6.14-6.41-9.33-13.68-9.23-21,.09-7.13,3.25-13.87,9.13-19.5s12.66-8.55,19.71-8.55c7.62,0,14.95,3.45,21.21,10,6,6.25,9.1,13.42,9,20.76s-3.33,14.29-9.43,20.13c-3.22,3.09-10,8.27-19.11,8.27h0a25.36,25.36,0,0,1-9.7-2c-.62,3.83.55,5.05,1.6,6.15,2.33,2.44,3.8,2.8,4.47,2.8a1.59,1.59,0,0,0,.93-.28,3,3,0,0,1,1.74-.67,2.18,2.18,0,0,1,1.62.73c.62.65,1.37,2-.51,3.8C276.54,829.27,271.9,832.12,267.21,832.12Zm3.41-24.78a13.94,13.94,0,0,0,1.45.08c7.36,0,14.25-6.59,16.84-9.08,3.75-3.59,7.8-8,9.34-13.14a14.41,14.41,0,0,0-3.51-14.62A14.59,14.59,0,0,0,284.19,766a16.53,16.53,0,0,0-4.38.62c-5.67,1.65-10.8,6.57-13,8.67-3.43,3.28-11.16,10.69-9.57,19.51a6.63,6.63,0,0,1,4.58-1.74,9.06,9.06,0,0,1,6.45,2.9C271.81,799.63,271.25,804.31,270.62,807.34Zm-8.79-9.54a1.94,1.94,0,0,0-1.4.52,2.1,2.1,0,0,0-.61,1.33,4.29,4.29,0,0,0,1.5,3.05,16,16,0,0,0,4.08,3.08c1.65-3.52.61-5.31-.52-6.49A4.41,4.41,0,0,0,261.83,797.8Z" transform="translate(-14.84 -14.84)"/><path class="cls-4" d="M260.76,828.39c-4.95-5.18-1.62-10.49,3.17-18.07a37.07,37.07,0,0,1-5.56-4.8c-12.35-12.9-11.48-28.24-.13-39.11,11.68-11.18,27.31-11.33,39.5,1.4,11.83,12.35,11.65,28-.36,39.48-6.06,5.8-16.58,11.29-28.87,5.58-1.21,5.31.39,7,1.61,8.26.91.94,4.27,4.34,6.7,2.65a1.44,1.44,0,0,1,2.07-.07c1,1,0,2-.49,2.39C274.62,829.72,266.2,834.06,260.76,828.39Zm38.45-42.9a15.46,15.46,0,0,0-3.74-15.6,15.62,15.62,0,0,0-15.92-4.27c-5.92,1.73-11.2,6.78-13.43,8.91-4.34,4.16-12.63,12.42-9.36,22.4a6.24,6.24,0,0,1,1.06-1.34c2.67-2.55,7-1.8,9.73,1,3.57,3.73,2.54,8.55,1.87,11.53,8.79,1.83,17.07-6.11,20.19-9.09C292.89,795.92,297.51,791.17,299.21,785.49Zm-33.61,13.1c-1.76-1.83-4.36-2.43-5.86-1-.67.64-2.07,2.73.86,5.79a16.22,16.22,0,0,0,5.25,3.71C268.29,802.63,267.09,800.15,265.6,798.59Z" transform="translate(-14.84 -14.84)"/><path class="cls-4" d="M328.88,860.44c-4.67,0-9.45-1.71-14.2-5.1-12.5-8.9-16.1-20.93-9.18-30.65l17.65-24.77-6.77-4.83,3.31-4.64.83.69c2.21,1.86,8.38,6.25,11,8.13s8.83,6.29,11.31,7.78l.93.56-3.31,4.64-6.77-4.83-18,25.28c-2.33,3.27-7.78,10.92,2.51,18.24,2.45,1.74,6.23,3.82,10.4,3.82s7.75-2.08,10.68-6.2l16.85-23.64a7.15,7.15,0,0,0,.44-.68,10.75,10.75,0,0,0-1-1,35.32,35.32,0,0,0-3.11-2.49l-2.38-1.7,3.3-4.64.83.68c2.41,2,5.66,4.32,8.27,6.18,2.4,1.71,6,4.27,8.48,5.76l.93.55-3.31,4.65-2.38-1.7a23.39,23.39,0,0,0-3.42-2.16,12.42,12.42,0,0,0-1.19-.61,6.57,6.57,0,0,0-.5.65l-17,23.89A18.54,18.54,0,0,1,328.88,860.44Z" transform="translate(-14.84 -14.84)"/><path class="cls-4" d="M366.76,829.76a24.65,24.65,0,0,0-3.52-2.23c-1.89-1.06-2-1-3,.34l-17,23.89c-5.5,7.72-16.05,11.26-28,2.77-13-9.25-14.89-20.91-8.94-29.26l18.23-25.59-6.78-4.82,2.1-3c2.25,1.89,8.4,6.27,11.1,8.19s8.84,6.3,11.36,7.81l-2.1,3L333.45,806l-18.59,26.09c-2.5,3.51-8.23,11.82,2.75,19.64,6.84,4.87,15.86,6.67,22.47-2.62l16.85-23.64c1-1.38,1-1.49-.72-3A35.39,35.39,0,0,0,353,820l-1.57-1.12,2.1-2.94c2.44,2,5.7,4.34,8.34,6.22,2.44,1.74,6,4.29,8.53,5.8l-2.1,2.94Z" transform="translate(-14.84 -14.84)"/><path class="cls-4" d="M349.07,877.17l2.4-5.08,7.52,3.55,18.43-39-7.52-3.56,2.4-5.08,44.93,21.24L410.84,869l-5.1-2.41.27-.84c2.7-8.4,3.56-13.88-7.22-19l-9.68-4.58-7.6,16.09,2.92,1.38a11,11,0,0,0,4.48,1.28c2.42,0,3.67-1.76,5.42-5.46l.43-.9,5.08,2.4-10.1,21.36-5.08-2.4.42-.9c2.38-5,2.81-7.53-3.05-10.3l-2.92-1.38-8.43,17.82,9.68,4.57a22,22,0,0,0,9.2,2.53c5.9,0,9.4-4.45,13.38-10.26l.48-.7,5.11,2.42L395.15,899Z" transform="translate(-14.84 -14.84)"/><path class="cls-4" d="M394.81,897.68l-44.41-21,1.55-3.27,7.52,3.55,19.28-40.79-7.52-3.56,1.55-3.27L416,849.79l-5.77,17.8L407,866c2.87-8.95,3.46-14.89-7.74-20.18l-10.58-5-8.46,17.89,3.83,1.81c6.75,3.19,8.79.5,11.23-4.65l3.27,1.54L389.26,877,386,875.46c2.43-5.15,3.15-8.48-3.53-11.64L378.63,862l-9.28,19.63,10.58,5c12.88,6.09,17.76.81,23.83-8.07l3.27,1.54Z" transform="translate(-14.84 -14.84)"/><path class="cls-4" d="M412.18,905.06c-1.56-.46-3.32-1-2.49-3.85a3.68,3.68,0,0,1,1.47-2.24l40.75-33.6-7.8-2.27A24.07,24.07,0,0,0,437.5,862c-5.87,0-9.76,3.23-12.24,10.17l-.31.88-5.39-1.56,6.72-19.46,38.92,11.32c1.48.43,3.32,1,2.51,3.78a3.28,3.28,0,0,1-1.43,2.08L425.63,902.8l8.54,2.48a25.73,25.73,0,0,0,7.06,1.14c8.1,0,10.81-5.58,13.52-12.88l.32-.87,5.39,1.57-8.11,22.5Z" transform="translate(-14.84 -14.84)"/><path class="cls-4" d="M451.72,915.51,412.46,904.1c-1.63-.48-2.36-.69-1.81-2.61a2.69,2.69,0,0,1,1.15-1.75L454,864.93l-9.61-2.79c-10.35-3-16.62.06-20.07,9.72l-3.47-1,6.07-17.56,38,11.05c1.55.45,2.37.69,1.83,2.54-.24.81-.26.88-1.11,1.6l-42.1,34.75,10.35,3c15.16,4.41,18.82-4.31,21.79-12.35l3.48,1Z" transform="translate(-14.84 -14.84)"/><path class="cls-4" d="M500.15,924.6a40.58,40.58,0,0,1-4.49-.26c-8.7-1-15.75-4.48-20.38-10.13s-6.48-12.79-5.56-20.92c1.76-15.64,12.48-25.35,28-25.35a38.6,38.6,0,0,1,4.38.25c8.59,1,15.59,4.48,20.22,10.16s6.6,13.12,5.65,21.51C526.22,915.12,515.57,924.6,500.15,924.6Zm-.45-51.47A14.16,14.16,0,0,0,488.78,878c-3.54,4.32-4.61,10.08-5.24,15.67-.85,7.53-.51,12.35,1.18,16.63a14,14,0,0,0,11.52,8.82,14.88,14.88,0,0,0,1.64.09,14,14,0,0,0,11.21-5.52c3.53-4.55,4.65-10.92,5.29-16.55.6-5.35.86-11-1.33-15.83a14.36,14.36,0,0,0-11.63-8.1A16.22,16.22,0,0,0,499.7,873.13Z" transform="translate(-14.84 -14.84)"/><path class="cls-4" d="M495.77,923.35c-17.37-2-26.85-14.11-25.06-30,1.81-16.07,13.72-26.19,31.25-24.21,17,1.91,26.85,14,25,30.55C525.18,915.43,513.37,925.33,495.77,923.35ZM514,880.92a15.84,15.84,0,0,0-26-3.54c-3.95,4.82-4.91,11.3-5.46,16.19-.75,6.58-.75,12.09,1.24,17.11a15.16,15.16,0,0,0,26.09,3.64c3.81-4.91,4.89-11.69,5.49-17S516.31,886.15,514,880.92Z" transform="translate(-14.84 -14.84)"/><path class="cls-4" d="M537.06,921.7l2.92-.23a22.06,22.06,0,0,0,4-.53,9,9,0,0,0,1.31-.29,5.67,5.67,0,0,0,0-.82L542,877.6l-8.29.64-.43-5.6,18.58-1.43c.41,0,.73-.05,1-.05a3,3,0,0,1,2.38,1.12L586.67,904l-2.17-28.39c0-.21,0-.61-.09-.8a11,11,0,0,0-1.4-.09l-1.33,0c-.89,0-1.76,0-2.65.11l-2.92.22-.43-5.68h1.07c3.12,0,7.09-.32,10.28-.56h.14c2.89-.22,7.26-.56,10.08-1l1.07-.17.44,5.68-2.92.23a22.19,22.19,0,0,0-4,.53,9,9,0,0,0-1.31.29,5.67,5.67,0,0,0,0,.82L594,919.5c.13,1.7.27,3.45-2.8,3.68a6.58,6.58,0,0,1-.71,0,2.75,2.75,0,0,1-2.24-1.17l-39.76-40.13,2.87,37.45c0,.21,0,.61.09.8a11,11,0,0,0,1.4.09l1.32,0c.89,0,1.77,0,2.66-.11l2.92-.22.43,5.68h-1.07c-3.12,0-7.09.32-10.28.56-2.95.23-7.36.57-10.22,1l-1.07.17Z" transform="translate(-14.84 -14.84)"/><path class="cls-4" d="M595.77,872.48a23,23,0,0,0-4.13.55c-2.14.39-2.21.48-2.08,2.16L593,919.57c.13,1.77.19,2.46-1.89,2.62-1.23.09-1.31,0-2.15-.84l-41.68-42.06,3.08,40.15c.13,1.69.21,1.76,2.45,1.82a34.81,34.81,0,0,0,4.09-.08l1.92-.15.28,3.61c-3.17,0-7.16.32-10.39.57-3,.23-7.37.56-10.27,1l-.27-3.61,1.92-.15a22.85,22.85,0,0,0,4.12-.55c2.14-.39,2.21-.48,2.08-2.17l-3.32-43.22-8.29.64-.27-3.61L552,872.21c1.61-.13,1.69-.05,2.61.8l33.31,33.59-2.38-31.09c-.13-1.69-.22-1.76-2.46-1.82a34.86,34.86,0,0,0-4.09.08l-1.92.15-.28-3.61c3.17,0,7.16-.32,10.39-.57,3-.23,7.37-.56,10.27-1l.28,3.61Z" transform="translate(-14.84 -14.84)"/><path class="cls-4" d="M663.08,904.81c-12.2,0-21.94-6.83-26.08-18.25-2.77-7.68-2.35-15.29,1.21-22s10.29-12.2,19.24-15.43a25.6,25.6,0,0,1,8.75-1.61,24,24,0,0,1,7.15,1.11l2.84-5.27a2.74,2.74,0,0,1,1.68-1.61,2.92,2.92,0,0,1,1-.21c1.41,0,1.84,1.2,2.26,2.36l5.63,15.57a3.48,3.48,0,0,1,.33,2.55c-.34.82-1.22,1.13-2.15,1.47a5.23,5.23,0,0,1-1.67.41c-1.12,0-1.59-.86-2.05-1.68-3.38-5.92-8.81-9.33-14.91-9.33a16.15,16.15,0,0,0-5.48,1c-4.06,1.47-9.46,4.46-12.19,10.4-2.8,6.36.16,14.54,1.27,17.62,2.68,7.4,5.57,11.59,9.66,14a16.59,16.59,0,0,0,8.33,2,25.52,25.52,0,0,0,8.54-1.57c7.43-2.69,13.55-10,10.86-18.89-.64-2.17,1-2.75,1.84-3.06a4.42,4.42,0,0,1,1.5-.36c1.4,0,1.88,1.34,2.07,1.85a17.93,17.93,0,0,1-1.61,14.66,26.6,26.6,0,0,1-14.49,11.71A40.16,40.16,0,0,1,663.08,904.81Z" transform="translate(-14.84 -14.84)"/><path class="cls-4" d="M676.32,901.33c-18,6.52-33-.27-38.37-15.11s1.81-29.64,19.84-36.16a23.3,23.3,0,0,1,16-.23l3.24-6c.4-.72.49-.92,1.14-1.15,1.3-.47,1.54.18,2,1.55l5.62,15.57c.68,1.89.66,2.06-1.22,2.74-1.66.6-1.79.48-2.5-.82-4.92-8.62-13.79-11.63-21.61-8.81-3.76,1.36-9.78,4.44-12.76,10.92-2.83,6.43-.22,14.33,1.24,18.38,2.36,6.52,5.19,11.64,10.09,14.53,5.36,3.06,12.07,2.6,17.72.56,7.31-2.65,14.48-10.23,11.48-20.12-.38-1.26.28-1.49,1.22-1.83,1.23-.45,1.76-.56,2.29.89C694.83,884.57,689.86,896.43,676.32,901.33Z" transform="translate(-14.84 -14.84)"/><path class="cls-4" d="M705.49,883.34l7.76-4.1-20.32-38.55-7.76,4.09-2.66-5,1-.43c2.88-1.26,9.72-4.86,12.64-6.4,3.18-1.68,9.78-5.16,12.43-6.81l.91-.57,2.66,5-7.77,4.09,20.33,38.55,7.76-4.09,2.66,5-1,.43c-2.89,1.26-9.72,4.87-12.64,6.41-3.23,1.7-9.8,5.16-12.43,6.81l-.92.57Z" transform="translate(-14.84 -14.84)"/><path class="cls-4" d="M721,880.11c-3.13,1.65-9.81,5.17-12.49,6.85l-1.69-3.2,7.76-4.1-21.25-40.32-7.77,4.09-1.68-3.2c2.9-1.27,9.57-4.79,12.71-6.44s9.81-5.17,12.49-6.85l1.69,3.21L703,834.24l21.26,40.33,7.76-4.1,1.69,3.2C730.83,874.94,724.15,878.46,721,880.11Z" transform="translate(-14.84 -14.84)"/><path class="cls-4" d="M747.83,859.89l9.6-6.83-24.79-34.81-4,2.86c-8.11,5.77-5.89,10.41-1.28,18.12l.48.79-4.59,3.27L712.76,825.5l43.7-31.12,13.39,15.71-4.59,3.26-.59-.7c-4-4.73-6.75-7.6-10.44-7.6-2.07,0-4.39,1-7.11,2.88l-4,2.82L768,845.55l9.6-6.83,3.29,4.62-.89.57c-3.55,2.24-10.7,7.34-14.14,9.79-3.73,2.65-10.64,7.57-13.87,10.15l-.83.66Z" transform="translate(-14.84 -14.84)"/><path class="cls-4" d="M765.43,812c-5.72-6.7-9.92-11.27-18.89-4.88l-4.76,3.39,26,36.44,9.59-6.83,2.1,2.94c-3.52,2.23-10.48,7.18-14.18,9.82s-10.66,7.59-13.91,10.19l-2.1-2.94,9.59-6.84-26-36.44L728,820.29c-9,6.44-6,12-1.56,19.45l-2.94,2.1-9.45-16.05,42.21-30.06,12.08,14.17Z" transform="translate(-14.84 -14.84)"/><path class="cls-4" d="M805.09,814.68l5.8-5.95-11.58-11.29-32.69-5.73L761,797.45l-4.09-4,.82-.72c2-1.73,6.88-6.73,9-8.87l.13-.12c2.44-2.51,7.52-7.73,9.5-10.09l.69-.82,4.08,4-3.94,4,24,4.19-4.78-23.4a18.63,18.63,0,0,0-3.27,2.86l-.69.71-.73-.69-3.37-3.28.82-.71c2.11-1.84,5-4.83,7.15-7L803,746.3l4,3.94-1.82,1.88a30.49,30.49,0,0,0-2.55,2.94l-.22.28c-.83,1.12-.92,1.27-.76,1.95L808,788.51l11.58,11.28,5.86-6,4.09,4-.82.71c-2.15,1.89-7.14,7-9.54,9.47l-.08.08c-2.24,2.3-7.49,7.69-9.23,9.81l-.7.84Z" transform="translate(-14.84 -14.84)"/><path class="cls-4" d="M804.48,751.42a34.83,34.83,0,0,0-2.63,3c-1,1.37-1.44,1.81-1.16,3.06l6.4,31.5,12.52,12.2,5.86-6,2.59,2.52c-2.2,1.94-7.36,7.23-9.67,9.6s-7.53,7.72-9.3,9.87l-2.59-2.53,5.81-5.95-12.52-12.2-33.51-5.88L761,796l-2.59-2.53c2-1.77,6.88-6.73,9-8.94,2.42-2.48,7.63-7.83,9.67-10.25l2.59,2.52-4.57,4.69,27.29,4.76-5.12-25.09a3.12,3.12,0,0,0-.28-1,16.05,16.05,0,0,0-4.64,3.66l-2.59-2.53c2.15-1.88,5.16-5,7.26-7.12l6-6.45,2.59,2.53Z" transform="translate(-14.84 -14.84)"/><polygon class="cls-4" points="854.8 700.14 862.16 722.79 842.91 708.79 823.64 722.79 831 700.15 811.75 686.16 835.55 686.16 842.91 663.53 850.26 686.16 874.06 686.16 854.8 700.14"/><polygon class="cls-4" points="219.28 700.14 226.64 722.79 207.39 708.79 188.13 722.79 195.48 700.15 176.23 686.16 200.03 686.16 207.39 663.53 214.75 686.16 238.54 686.16 219.28 700.14"/></g><g id="circle2"><circle class="cls-5" cx="525.16" cy="525.16" r="306.53"/></g><g id="fire"><path class="cls-6" d="M542.27,301c5.22,1,9.27,3.1,9.36,7.64.1,5-4.17,6.48-4.78,15.83-3.46-2.34-5.15-4.52-5.62-7.41-.22-1.37,1-3.86,2.49-6.57a8.62,8.62,0,0,0,.58-5.71A10.46,10.46,0,0,0,542.27,301Z" transform="translate(-14.84 -14.84)"/><path class="cls-6" d="M509.49,303c-7.66,22-19.4,57.7-21.19,92.17s2.3,70.72,2.3,70.72H452.3l28.59-28.34-48-8.68,46.73-15.06-48-23.75,48.25-9.7-57.44-23.23s58.46-14.81,64.85-12.26c-18.13-8.26-40.43-17.62-40.43-17.62s45.36-8.76,49.7-9c-9-9.19-20.76-20.25-20.76-20.25Z" transform="translate(-14.84 -14.84)"/><path class="cls-6" d="M570.51,300.57c7.66,22,19.4,57.71,21.19,92.17s-2.3,70.73-2.3,70.73h38.3l-28.59-28.34,48-8.68-46.73-15.07,48-23.74-48.25-9.7,57.44-23.24s-58.46-14.81-64.85-12.25c18.13-8.26,40.43-17.62,40.43-17.62s-45.36-8.77-49.7-9c9-9.19,20.76-20.26,20.76-20.26Z" transform="translate(-14.84 -14.84)"/><path class="cls-6" d="M510.47,380.51s5,1,7.34,4c2.89,3.58,1,14.49-2.94,19.85s-15.19,15.57-11.36,40.47,32.17,19.66,32.17,19.66h22.47a43.87,43.87,0,0,0,22.19-35.36c1.92-28.22-11.4-46.6-22.43-56.81,7.39,14.36,4.58,21.76-3.74,23.87,1.94-4.85.49-12.17-2.55-19.28-2.88-6.72-10.24-13.55-9.71-22.34.94-15.49,22.47-16,14.15-39.66-2,6.81-3.63,9.45-8.66,13-7.44,5.24-17.36,8.43-20.17,21.7-3.09,14.61,8.81,27.45,9.32,43s-3.19,21.71-7,21.83-4.21-3.7-3.57-5.74,6.23-13,1.4-22.47C522.34,376.36,510.47,380.51,510.47,380.51Z" transform="translate(-14.84 -14.84)"/><path class="cls-6" d="M531.88,324.34c4,1.92,4.51,6.07,2.35,9.34-1.74,2.64-9,6.3-11,14.85-.92,6.1.46,9.32.46,9.32a17.39,17.39,0,0,1-4.36-1.83A10.1,10.1,0,0,1,515.45,346c.89-4.65,4.89-9.27,10.94-13.25C533.57,328,531.88,324.34,531.88,324.34Z" transform="translate(-14.84 -14.84)"/><path class="cls-6" d="M562.43,334.62c2.12,1.19,6.72,5.53,5.78,10.47s-2.15,5.42-12.55,14c-5,4.17-1.4,10.38-1.4,10.38s-8.67-2.06-7.84-11.15c.72-7.89,5-8,11.73-13.34C564.09,340.3,562.43,334.62,562.43,334.62Z" transform="translate(-14.84 -14.84)"/></g><g id="fire_handle" data-name="fire handle"><rect class="cls-1" x="489.74" y="442.78" width="70.85" height="7.81" rx="3.9"/><rect class="cls-1" x="493.44" y="452.15" width="61.91" height="6.82" rx="3.41"/><path class="cls-1" d="M565.36,475.37a21.72,21.72,0,0,1-21.57,19.24h-8.34a21.72,21.72,0,0,1-21.57-19.24Z" transform="translate(-14.84 -14.84)"/><path class="cls-1" d="M553.56,478.32,549.45,516a70.65,70.65,0,0,1-19.7-.32l-4.08-37.34Z" transform="translate(-14.84 -14.84)"/></g><g id="book"><path class="cls-1" d="M542.81,659a30.37,30.37,0,0,1,6.31-7.63,27.36,27.36,0,0,1,8.68-5,33.7,33.7,0,0,1,9.8-1.89,59.67,59.67,0,0,1,9.84.61,187.92,187.92,0,0,1,19,4c6.26,1.48,12.49,3.16,18.9,3.68V653c-6.47-.1-12.87-1.36-19.18-2.58a188.51,188.51,0,0,0-19-3,62.21,62.21,0,0,0-9.45-.15,37.82,37.82,0,0,0-9.19,1.38,25,25,0,0,0-8.2,4.21,28.54,28.54,0,0,0-6.27,6.91Z" transform="translate(-14.84 -14.84)"/><path class="cls-1" d="M536.08,659.8a32,32,0,0,0-6.31-6.82,26.88,26.88,0,0,0-8.09-4.33c-5.89-2-12.35-2-18.66-1.43s-12.65,1.91-19,3.15c-3.16.63-6.33,1.25-9.52,1.73a66.6,66.6,0,0,1-9.65.9v-.24c6.41-.52,12.64-2.16,18.91-3.63a172.6,172.6,0,0,1,19-3.84,62.87,62.87,0,0,1,9.81-.51,35.43,35.43,0,0,1,9.81,1.6,25.54,25.54,0,0,1,8.78,4.84,27.41,27.41,0,0,1,6.28,7.72Z" transform="translate(-14.84 -14.84)"/><path class="cls-1" d="M550,660.28c.55-.6,1.08-1.23,1.65-1.81s1.19-1.14,1.87-1.61a16.4,16.4,0,0,1,2.07-1.36l1.09-.6c.37-.18.76-.32,1.14-.49a29.93,29.93,0,0,1,9.57-2,81.11,81.11,0,0,1,9.62.15c3.18.26,6.34.59,9.48,1L605.31,656c6.27.8,12.54,1.49,18.82,2.12a576.33,576.33,0,0,0,75.72,2.27v.18a565.48,565.48,0,0,1-75.9-.47c-12.64-.93-25.23-2.54-37.77-4-3.13-.4-6.25-.74-9.38-1a81,81,0,0,0-9.32-.45,27.63,27.63,0,0,0-9,1.46,18.81,18.81,0,0,0-7.46,5.06Z" transform="translate(-14.84 -14.84)"/><path class="cls-1" d="M531.53,660.61a18.12,18.12,0,0,0-7.58-4.55,29,29,0,0,0-8.92-.94A174.77,174.77,0,0,0,496.34,657c-6.25.95-12.53,1.95-18.82,2.82s-12.6,1.64-18.92,2.28a480.84,480.84,0,0,1-76.08,1.25v-.18c12.67.42,25.35.43,38,0s25.29-1.4,37.85-2.91,25-3.59,37.54-5.78c6.26-1,12.51-2.47,19.07-2.48a27,27,0,0,1,9.84,1.59L526,654l1.12.61a15,15,0,0,1,2.13,1.39,21.44,21.44,0,0,1,1.87,1.69c.57.61,1.08,1.27,1.6,1.9Z" transform="translate(-14.84 -14.84)"/><path class="cls-7" d="M382.11,655.55c-3,2.81-17.4,13.25-17.4,13.25" transform="translate(-14.84 -14.84)"/><path class="cls-8" d="M539.51,517.23a39.94,39.94,0,0,0-31.65-13.08c-20.68.76-57.36,34.21-100.13,26.42-3.83,29.37-5.83,42.48-12.86,75.62-3.17,14.94-11.48,47.7-12.76,49.36,12.39,0,52.09,1.15,81.58-7.66s32.57-12.69,50.42-11.1c19.66,1.74,26.63,20.89,26.63,20.89s7-20.42,27.49-21.4c27.68-1.33,49,11.87,74.44,16.34,14.81,2.6,54.38.7,54.38.7s-9.26-31.63-14.94-61.85c-2.34-15.81-8-56.68-7.53-60.77-67.91-2.81-64.3-26.53-98.26-26.42C550.74,504.36,539.51,517.23,539.51,517.23Z" transform="translate(-14.84 -14.84)"/><path class="cls-1" d="M539.48,518.73a1.59,1.59,0,0,1-.85-.3,1.63,1.63,0,0,1-.32-.3l0,0-.08-.09-.16-.19-.35-.38c-.23-.25-.47-.5-.72-.74-.5-.49-1-1-1.54-1.43a36.2,36.2,0,0,0-3.33-2.59,38.91,38.91,0,0,0-15.52-6.38,42.49,42.49,0,0,0-8.43-.57A30.68,30.68,0,0,0,500,507.3c-2.71.87-5.39,1.94-8,3.09-5.32,2.31-10.57,4.91-15.87,7.42-10.6,5-21.5,9.81-33.05,12.73a94.68,94.68,0,0,1-17.66,2.77,77.29,77.29,0,0,1-17.9-1.09l2-1.43c-1.39,10.56-2.79,21.13-4.48,31.67s-3.68,21-5.82,31.47c-1.08,5.22-2.15,10.42-3.3,15.65s-2.4,10.4-3.67,15.58-2.58,10.34-3.93,15.5c-.68,2.58-1.37,5.16-2.09,7.73L385,652.26l-.61,1.94c-.11.33-.22.66-.35,1-.06.17-.13.35-.22.55a2.39,2.39,0,0,1-.14.31,4.34,4.34,0,0,1-.28.46L382.11,654c14.18.14,28.28.08,42.34-1s28-3.07,41.42-7.31c6.76-2,13.44-4.28,20.17-6.53,3.38-1.1,6.79-2.2,10.35-3A48.42,48.42,0,0,1,507.25,635c1.82,0,3.62.08,5.41.23a36,36,0,0,1,5.47.73,29.41,29.41,0,0,1,10.17,4.37,35.11,35.11,0,0,1,13,17.18h-1.18a35.37,35.37,0,0,1,12.45-17.3,28.47,28.47,0,0,1,9.95-4.58,32.42,32.42,0,0,1,5.45-.8c1.79-.1,3.56-.12,5.34-.11a98.4,98.4,0,0,1,21.1,2.75c6.9,1.6,13.61,3.75,20.27,5.91,13.31,4.3,26.54,8.73,40.44,8.82,6.94.28,13.92.29,20.9.19s14-.31,20.92-.63l-1.44,2c-2.9-10-5.55-20.11-8-30.24s-4.77-20.29-6.75-30.6c-.5-2.6-.8-5.19-1.19-7.76l-1.1-7.73L676.31,562c-.69-5.17-1.37-10.33-2-15.51-.31-2.59-.62-5.18-.89-7.78-.13-1.31-.26-2.61-.37-3.93,0-.66-.1-1.32-.13-2,0-.35,0-.67,0-1v-.55l0-.65,1.58,1.87c-12-.54-24-1.65-35.74-4.4a109.54,109.54,0,0,1-17.27-5.54,156.56,156.56,0,0,1-16.09-8.17c-5.17-2.91-10.36-5.54-16-6.92A58.39,58.39,0,0,0,572.18,506a59.59,59.59,0,0,0-17,3.41,47,47,0,0,0-7.82,3.7,37.53,37.53,0,0,0-3.57,2.38c-.57.44-1.13.88-1.66,1.34-.27.24-.53.47-.78.71l-.37.36-.17.18-.08.08,0,.05s0,0-.3.26A1.63,1.63,0,0,1,539.48,518.73Zm.07-3a1.42,1.42,0,0,0-.85.23c-.33.25-.27.25-.25.21l0-.06.11-.12.22-.22.43-.42c.28-.28.58-.54.87-.8.59-.52,1.2-1,1.81-1.48a42.32,42.32,0,0,1,3.84-2.59,50.18,50.18,0,0,1,8.31-4A62.57,62.57,0,0,1,572,502.85a61.65,61.65,0,0,1,18.24,1.38c6,1.46,11.57,4.27,16.77,7.17a152.51,152.51,0,0,0,15.8,7.94,109.53,109.53,0,0,0,16.75,5.34c11.46,2.69,23.29,3.81,35.11,4.36a1.66,1.66,0,0,1,1.59,1.74v.13l0,.31v.44c0,.28,0,.61,0,.91l.13,1.9c.1,1.27.23,2.56.36,3.85q.4,3.85.87,7.73.93,7.73,2,15.46L681.68,577l1.09,7.73c.39,2.57.69,5.16,1.17,7.66,1.93,10.14,4.2,20.32,6.66,30.4s5.11,20.15,8,30.11v0a1.58,1.58,0,0,1-1.09,2,1.13,1.13,0,0,1-.36.06c-7,.31-14,.51-21,.61s-14,.07-21.08-.22c-3.52-.15-7-.38-10.6-.86a99.41,99.41,0,0,1-10.44-2.1c-6.87-1.7-13.56-3.9-20.21-6.07s-13.27-4.3-20-5.87a95.74,95.74,0,0,0-20.45-2.69h-2.58l-2.57.08a31.41,31.41,0,0,0-4.93.66A30.3,30.3,0,0,0,558.5,640a27.3,27.3,0,0,0-4.38,2.38,31.8,31.8,0,0,0-7.41,6.83,39.26,39.26,0,0,0-5.37,8.68l0,.07a.62.62,0,0,1-.82.31.61.61,0,0,1-.33-.36h0a39.46,39.46,0,0,0-5.65-8.64,32.9,32.9,0,0,0-7.69-6.7,28.68,28.68,0,0,0-9.31-3.76,36.25,36.25,0,0,0-5.06-.62c-1.74-.14-3.48-.2-5.2-.21a44.92,44.92,0,0,0-10.21,1.1c-3.36.75-6.7,1.83-10.05,2.93-6.69,2.24-13.44,4.51-20.23,6.57-13.65,4.34-27.91,6.33-42.07,7.49s-28.44,1.22-42.58,1.09l-1.25-2.55s0,0,0,0l.06-.15c.05-.1.1-.24.16-.38l.31-.89.58-1.86,1.1-3.81c.71-2.55,1.39-5.11,2.07-7.68q2-7.71,3.9-15.46c1.25-5.16,2.48-10.33,3.63-15.51s2.2-10.4,3.27-15.6c2.12-10.42,4.09-20.86,5.75-31.34s3.05-21,4.42-31.58a1.67,1.67,0,0,1,1.88-1.44H408a73.72,73.72,0,0,0,17.11,1,90.32,90.32,0,0,0,17-2.7c11.2-2.8,21.92-7.42,32.48-12.39,5.3-2.48,10.56-5.07,16-7.41a89.12,89.12,0,0,1,8.37-3.17,33.35,33.35,0,0,1,9-1.7,45.26,45.26,0,0,1,9.07.65,42.07,42.07,0,0,1,16.71,6.94,39,39,0,0,1,3.59,2.81c.57.51,1.13,1,1.68,1.57.27.27.53.55.8.83l.39.44.2.22.1.12,0,.06c0,.08,0,0-.28-.25A1.38,1.38,0,0,0,539.55,515.73Z" transform="translate(-14.84 -14.84)"/><path class="cls-7" d="M675.81,534.53s1.42,31.09,5.72,53,15.52,65.77,15.52,65.77l18.38,9.77s-13-41.07-18.38-66.2c-6.7-31.32-7.66-40.29-8.17-45.25l-14.3-20.94" transform="translate(-14.84 -14.84)"/><path class="cls-7" d="M717.94,665.94s-8.93.34-36.17,1.19-89.87,1.13-118-1.9c0,4.88-7.09,5.89-24.2,5.9-23.81,0-23.3-5.62-23.3-5.62-3.39,1.32-2.26,2.34-23.61,2.44-6.3,0-128,0-128,0s15.31-57.43,19.56-75.28c6.36-26.65,9.08-47,9.08-47,7.34-5.36,14.88-15.39,14.88-15.39" transform="translate(-14.84 -14.84)"/><polygon class="cls-1" points="526.21 601.33 524.12 551.24 521.98 501.14 524.67 501.09 522.44 501.08 526.91 501 524.68 501.09 527.38 501.04 527.07 551.18 526.82 601.32 526.21 601.33"/><path class="cls-9" d="M665.39,546.08" transform="translate(-14.84 -14.84)"/><path class="cls-9" d="M583.69,525.34" transform="translate(-14.84 -14.84)"/><path class="cls-9" d="M548.2,533.77" transform="translate(-14.84 -14.84)"/></g><g id="Layer_10" data-name="Layer 10"><path class="cls-10" d="M675.86,535.58l13,16.06s7.8,45.19,11,59.49,15.57,52,15.57,52l-11.86-6.31s-6.14-3.42-6.52-4.19-12.14-48.54-12.14-48.54l-6.14-34.46Z" transform="translate(-14.84 -14.84)"/><polygon class="cls-11" points="682.21 638.66 703.11 650.8 643.27 652.08 620.16 645.16 667.91 646.08 628.85 638.66 654.12 639.15 682.21 638.66"/><path class="cls-11" d="M446,652.59s-13.62,5.15-20.08,6.78-25.88,4.43-25.88,4.43,44.06-.92,49.54-1.62c-8.26,3.08-12.09,5.77-12.09,5.77l-72.18.41,17.93-12.81s27.86-.18,33.7-.55S446,652.59,446,652.59Z" transform="translate(-14.84 -14.84)"/><polygon class="cls-10" points="378.47 530.78 392.71 517.16 384.9 567.46 374.78 613.76 367.28 640.72 349.83 653.12 361.1 610.39 370.45 573.35 375.19 550.57 378.47 530.78"/></g><g id="gear"><path class="cls-12" d="M673.35,369.11l50.47-34.35a272,272,0,0,1,20.9,20.83L710.5,406.16a214.46,214.46,0,0,1,18.12,27l59.83-12.44a273.57,273.57,0,0,1,11.33,27.22l-51,33.64a215.3,215.3,0,0,1,6.36,31.89l60,11.39q.42,7.53.42,15.15,0,7.21-.37,14.35l-59.95,11.57h0A213.88,213.88,0,0,1,749,597.83L800,631.33a271.29,271.29,0,0,1-11.26,27.25l-59.85-12.27a216.27,216.27,0,0,1-18,27l34.35,50.47a272,272,0,0,1-20.83,20.9L673.84,710.5a214.46,214.46,0,0,1-27,18.12l12.44,59.83a273.57,273.57,0,0,1-27.22,11.33l-33.64-51a215.3,215.3,0,0,1-31.89,6.36l-11.39,60q-7.53.42-15.15.42-7.21,0-14.35-.37l-11.57-59.95h0A213.88,213.88,0,0,1,482.17,749L448.67,800a271.29,271.29,0,0,1-27.25-11.26l12.27-59.85a216.27,216.27,0,0,1-27-18l-50.47,34.35a272,272,0,0,1-20.9-20.83l34.22-50.57a214.46,214.46,0,0,1-18.12-27l-59.83,12.44a273.57,273.57,0,0,1-11.33-27.22l51-33.64a215.3,215.3,0,0,1-6.36-31.89l-60-11.39q-.42-7.53-.42-15.15,0-7.21.37-14.35l59.95-11.57h0a213.88,213.88,0,0,1,6.26-31.91L280,448.67a271.29,271.29,0,0,1,11.26-27.25l59.85,12.27a216.27,216.27,0,0,1,18-27l-34.35-50.47a272,272,0,0,1,20.83-20.9l50.57,34.22" transform="translate(-14.84 -14.84)"/><path class="cls-1" d="M527.88,661.64a12.69,12.69,0,0,1,5.77-2.87A26.27,26.27,0,0,1,540,658a23.44,23.44,0,0,1,6.39.72,11.85,11.85,0,0,1,5.72,3l-.22.3a22.27,22.27,0,0,0-5.87-1.23c-2-.17-4-.23-6-.21s-4,.13-6,.31a25.56,25.56,0,0,0-5.9,1.15Z" transform="translate(-14.84 -14.84)"/><path class="cls-13" d="M385.28,660.52" transform="translate(-14.84 -14.84)"/><path class="cls-13" d="M534.61,660.72" transform="translate(-14.84 -14.84)"/><path class="cls-1" d="M686.53,592c.46,2.77,1.2,5.52,1.88,8.26s1.42,5.47,2.16,8.2q2.19,8.21,4.54,16.35c1.56,5.43,3.15,10.86,4.84,16.25s3.39,10.81,5.51,16l-1.69.71c-2.06-5.37-3.6-10.81-5.18-16.25s-3-10.92-4.44-16.4-2.81-11-4.14-16.46c-.67-2.75-1.33-5.51-2-8.27s-1.29-5.51-1.69-8.33Z" transform="translate(-14.84 -14.84)"/><path class="cls-1" d="M693.68,604.06c-1.89-9.53-3.86-19-5.53-28.63s-3.12-19.21-4-28.93l1.47-.11c.62,9.67,1.84,19.31,3.29,28.91s3.2,19.16,4.86,28.74Z" transform="translate(-14.84 -14.84)"/><path class="cls-1" d="M696.41,608.24c.37,2.21,1,4.39,1.5,6.57s1.13,4.36,1.71,6.53q1.75,6.52,3.62,13c1.24,4.33,2.51,8.65,3.85,12.94s2.7,8.6,4.38,12.69l-1.34.57c-1.64-4.28-2.86-8.61-4.12-12.94s-2.39-8.69-3.53-13.05-2.24-8.73-3.3-13.1q-.79-3.29-1.55-6.58c-.5-2.2-1-4.38-1.35-6.63Z" transform="translate(-14.84 -14.84)"/><path class="cls-1" d="M393.84,592.68c-.83,5.68-2.14,11.26-3.39,16.85s-2.59,11.16-3.93,16.72c-2.68,11.13-5.46,22.25-8.24,33.35l-1.76-.46c3-11,6.09-22.07,9-33.13,1.47-5.53,2.93-11.07,4.34-16.61s2.82-11.1,3.79-16.74Z" transform="translate(-14.84 -14.84)"/><path class="cls-1" d="M387.53,596c2-8.92,4.09-17.83,5.72-26.82A232,232,0,0,0,396.69,542l1.47.11A232.42,232.42,0,0,1,394,569.33c-1.85,9-4.14,17.83-6.38,26.69Z" transform="translate(-14.84 -14.84)"/><path class="cls-1" d="M385.35,612.48c-.32,2.24-.85,4.43-1.35,6.63s-1,4.39-1.55,6.57q-1.59,6.57-3.3,13.11c-1.14,4.36-2.3,8.71-3.53,13s-2.48,8.66-4.12,12.94l-1.34-.56c1.68-4.1,3-8.42,4.38-12.7s2.61-8.61,3.85-12.93,2.45-8.66,3.62-13c.58-2.17,1.16-4.35,1.71-6.53s1.13-4.37,1.5-6.57Z" transform="translate(-14.84 -14.84)"/></g></svg>